{
    "asset" : {
        "generator" : "Khronos glTF Blender I/O v1.3.48",
        "version" : "2.0"
    },
    "scene" : 0,
    "scenes" : [
        {
            "name" : "Scene",
            "nodes" : [
                0
            ]
        }
    ],
    "nodes" : [
        {
            "mesh" : 0,
            "name" : "Xr-Honeycomb",
            "rotation" : [
                0.7071068286895752,
                0,
                0,
                0.7071068286895752
            ],
            "scale" : [
                0.10000002384185791,
                0.10000002384185791,
                0.10000002384185791
            ]
        }
    ],
    "materials" : [
        {
            "doubleSided" : true,
            "emissiveFactor" : [
                0,
                0,
                0
            ],
            "name" : "Material.001",
            "pbrMetallicRoughness" : {
                "baseColorFactor" : [
                    0.11557979881763458,
                    0.07081659883260727,
                    0.018237214535474777,
                    1
                ],
                "metallicFactor" : 0,
                "roughnessFactor" : 0.5
            }
        }
    ],
    "meshes" : [
        {
            "name" : "Xr-Honeycomb",
            "primitives" : [
                {
                    "attributes" : {
                        "POSITION" : 0,
                        "NORMAL" : 1,
                        "TEXCOORD_0" : 2
                    },
                    "indices" : 3,
                    "material" : 0
                }
            ]
        }
    ],
    "accessors" : [
        {
            "bufferView" : 0,
            "componentType" : 5126,
            "count" : 33071,
            "max" : [
                39.29999923706055,
                9.600000381469727,
                76.80000305175781
            ],
            "min" : [
                -39.29999923706055,
                -4.76837158203125e-07,
                -76.80000305175781
            ],
            "type" : "VEC3"
        },
        {
            "bufferView" : 1,
            "componentType" : 5126,
            "count" : 33071,
            "type" : "VEC3"
        },
        {
            "bufferView" : 2,
            "componentType" : 5126,
            "count" : 33071,
            "type" : "VEC2"
        },
        {
            "bufferView" : 3,
            "componentType" : 5123,
            "count" : 35931,
            "type" : "SCALAR"
        }
    ],
    "bufferViews" : [
        {
            "buffer" : 0,
            "byteLength" : 396852,
            "byteOffset" : 0
        },
        {
            "buffer" : 0,
            "byteLength" : 396852,
            "byteOffset" : 396852
        },
        {
            "buffer" : 0,
            "byteLength" : 264568,
            "byteOffset" : 793704
        },
        {
            "buffer" : 0,
            "byteLength" : 71862,
            "byteOffset" : 1058272
        }
    ],
    "buffers" : [
        {
            "byteLength" : 1130136,
            "uri" : "data:application/octet-stream;base64,"
        }
    ]
}
