{
    "asset": {
        "copyright": "(C)2020 gebruiker",
        "generator": "maya2glTF v1.1.0 c13125a0af77",
        "version": "2.0"
    },
    "scenes": [
        {
            "nodes": [
                2,
                1,
                0
            ]
        }
    ],
    "scene": 0,
    "nodes": [
        {
            "name": "pPlane1",
            "mesh": 0,
            "scale": [
                9.625365257263184,
                1.0,
                9.625365257263184
            ]
        },
        {
            "name": "pCylinder1",
            "mesh": 1,
            "translation": [
                0.0,
                0.8377290368080139,
                0.0
            ]
        },
        {
            "name": "pCube1",
            "mesh": 2,
            "translation": [
                -0.00015938600699882954,
                2.161463499069214,
                0.0
            ]
        }
    ],
    "meshes": [
        {
            "name": "pPlaneShape1",
            "extras": {
                "targetNames": []
            },
            "primitives": [
                {
                    "attributes": {
                        "NORMAL": 1,
                        "POSITION": 2,
                        "TANGENT": 3,
                        "TEXCOORD_0": 4
                    },
                    "indices": 0,
                    "mode": 4,
                    "material": 0
                }
            ]
        },
        {
            "name": "pCylinderShape1",
            "extras": {
                "targetNames": []
            },
            "primitives": [
                {
                    "attributes": {
                        "NORMAL": 6,
                        "POSITION": 7,
                        "TANGENT": 8,
                        "TEXCOORD_0": 9
                    },
                    "indices": 5,
                    "mode": 4,
                    "material": 1
                }
            ]
        },
        {
            "name": "pCubeShape1",
            "extras": {
                "targetNames": []
            },
            "primitives": [
                {
                    "attributes": {
                        "NORMAL": 11,
                        "POSITION": 12,
                        "TANGENT": 13,
                        "TEXCOORD_0": 14
                    },
                    "indices": 10,
                    "mode": 4,
                    "material": 2
                }
            ]
        }
    ],
    "materials": [
        {
            "name": "lambert1",
            "pbrMetallicRoughness": {
                "baseColorFactor": [
                    0.4000000059604645,
                    0.4000000059604645,
                    0.4000000059604645,
                    1.0
                ],
                "metallicFactor": 0.0,
                "roughnessFactor": 1.0
            }
        },
        {
            "name": "aiStandardSurface1",
            "pbrMetallicRoughness": {
                "metallicFactor": 0.0,
                "roughnessFactor": 0.20000000298023225
            }
        },
        {
            "name": "aiStandardSurface2",
            "pbrMetallicRoughness": {
                "metallicFactor": 1.0,
                "roughnessFactor": 0.0
            }
        }
    ],
    "accessors": [
        {
            "name": "pPlaneShape1#0/indices",
            "bufferView": 0,
            "byteOffset": 0,
            "componentType": 5123,
            "count": 600,
            "max": [
                120
            ],
            "min": [
                0
            ],
            "type": "SCALAR"
        },
        {
            "name": "pPlaneShape1#0/vertices/NORMAL",
            "bufferView": 1,
            "byteOffset": 0,
            "componentType": 5126,
            "count": 121,
            "max": [
                0.0,
                1.0,
                0.0
            ],
            "min": [
                0.0,
                1.0,
                0.0
            ],
            "type": "VEC3"
        },
        {
            "name": "pPlaneShape1#0/vertices/POSITION",
            "bufferView": 1,
            "byteOffset": 1452,
            "componentType": 5126,
            "count": 121,
            "max": [
                0.5,
                0.0,
                0.5
            ],
            "min": [
                -0.5,
                0.0,
                -0.5
            ],
            "type": "VEC3"
        },
        {
            "name": "pPlaneShape1#0/vertices/TANGENT",
            "bufferView": 2,
            "byteOffset": 0,
            "componentType": 5126,
            "count": 121,
            "max": [
                1.0,
                0.0,
                0.0,
                1.0
            ],
            "min": [
                1.0,
                0.0,
                0.0,
                1.0
            ],
            "type": "VEC4"
        },
        {
            "name": "pPlaneShape1#0/vertices/TEXCOORD_0",
            "bufferView": 3,
            "byteOffset": 0,
            "componentType": 5126,
            "count": 121,
            "max": [
                1.0,
                1.0
            ],
            "min": [
                0.0,
                0.0
            ],
            "type": "VEC2"
        },
        {
            "name": "pCylinderShape1#0/indices",
            "bufferView": 0,
            "byteOffset": 1200,
            "componentType": 5123,
            "count": 240,
            "max": [
                83
            ],
            "min": [
                0
            ],
            "type": "SCALAR"
        },
        {
            "name": "pCylinderShape1#0/vertices/NORMAL",
            "bufferView": 1,
            "byteOffset": 2904,
            "componentType": 5126,
            "count": 84,
            "max": [
                1.0,
                1.0,
                1.0
            ],
            "min": [
                -1.0,
                -1.0,
                -1.0
            ],
            "type": "VEC3"
        },
        {
            "name": "pCylinderShape1#0/vertices/POSITION",
            "bufferView": 1,
            "byteOffset": 3912,
            "componentType": 5126,
            "count": 84,
            "max": [
                1.0,
                1.0,
                1.0000001192092896
            ],
            "min": [
                -1.000000238418579,
                -1.0,
                -1.0000004768371585
            ],
            "type": "VEC3"
        },
        {
            "name": "pCylinderShape1#0/vertices/TANGENT",
            "bufferView": 2,
            "byteOffset": 1936,
            "componentType": 5126,
            "count": 84,
            "max": [
                1.0,
                0.0,
                1.0,
                1.0
            ],
            "min": [
                -1.0,
                0.0,
                -1.0,
                1.0
            ],
            "type": "VEC4"
        },
        {
            "name": "pCylinderShape1#0/vertices/TEXCOORD_0",
            "bufferView": 3,
            "byteOffset": 968,
            "componentType": 5126,
            "count": 84,
            "max": [
                0.65625,
                1.0000001192092896
            ],
            "min": [
                0.3437499701976776,
                0.0
            ],
            "type": "VEC2"
        },
        {
            "name": "pCubeShape1#0/indices",
            "bufferView": 0,
            "byteOffset": 1680,
            "componentType": 5123,
            "count": 36,
            "max": [
                23
            ],
            "min": [
                0
            ],
            "type": "SCALAR"
        },
        {
            "name": "pCubeShape1#0/vertices/NORMAL",
            "bufferView": 1,
            "byteOffset": 4920,
            "componentType": 5126,
            "count": 24,
            "max": [
                1.0,
                1.0,
                1.0
            ],
            "min": [
                -1.0,
                -1.0,
                -1.0
            ],
            "type": "VEC3"
        },
        {
            "name": "pCubeShape1#0/vertices/POSITION",
            "bufferView": 1,
            "byteOffset": 5208,
            "componentType": 5126,
            "count": 24,
            "max": [
                0.5,
                0.5,
                0.5
            ],
            "min": [
                -0.5,
                -0.5,
                -0.5
            ],
            "type": "VEC3"
        },
        {
            "name": "pCubeShape1#0/vertices/TANGENT",
            "bufferView": 2,
            "byteOffset": 3280,
            "componentType": 5126,
            "count": 24,
            "max": [
                1.0,
                0.0,
                1.0,
                1.0
            ],
            "min": [
                0.0,
                0.0,
                -1.0,
                1.0
            ],
            "type": "VEC4"
        },
        {
            "name": "pCubeShape1#0/vertices/TEXCOORD_0",
            "bufferView": 3,
            "byteOffset": 1640,
            "componentType": 5126,
            "count": 24,
            "max": [
                0.875,
                1.0
            ],
            "min": [
                0.125,
                0.0
            ],
            "type": "VEC2"
        }
    ],
    "bufferViews": [
        {
            "name": "tryout_sitse/data/indices-2",
            "buffer": 0,
            "byteOffset": 10992,
            "byteLength": 1752,
            "target": 34963
        },
        {
            "name": "tryout_sitse/data/vertices-12",
            "buffer": 0,
            "byteOffset": 3664,
            "byteLength": 5496,
            "byteStride": 12,
            "target": 34962
        },
        {
            "name": "tryout_sitse/data/vertices-16",
            "buffer": 0,
            "byteOffset": 0,
            "byteLength": 3664,
            "byteStride": 16,
            "target": 34962
        },
        {
            "name": "tryout_sitse/data/vertices-8",
            "buffer": 0,
            "byteOffset": 9160,
            "byteLength": 1832,
            "byteStride": 8,
            "target": 34962
        }
    ],
    "buffers": [
        {
            "name": "tryout_sitse/data",
            "byteLength": 12744,
            "uri": "tryout_sitse0.bin"
        }
    ]
}
